<?xml version="1.0" standalone="no"?>
 <!DOCTYPE svg PUBLIC "-//W3C//DTD SVG 1.1//EN" 
 "http://www.w3.org/Graphics/SVG/1.1/DTD/svg11.dtd"> 
<svg xmlns="http://www.w3.org/2000/svg" version="1.1" 
    width="10.2972cm" height="11.0566cm" viewBox="0 0 40540 43530 ">
<title>SVG Picture created as crosspoint-breakout-brd.svg date 2018/06/20 20:53:35 </title>
  <desc>Picture generated by PCBNEW </desc>
<g style="fill:#000000; fill-opacity:1;stroke:#000000; stroke-opacity:1;
stroke-linecap:round; stroke-linejoin:round; "
 transform="translate(0 0) scale(1 1)">
</g>
<g style="fill:#000000; fill-opacity:0.0; 
stroke:#000000; stroke-width:-0.000393701; stroke-opacity:1; 
stroke-linecap:round; stroke-linejoin:round;">
</g>
<g style="fill:#000000; fill-opacity:0.0; 
stroke:#000000; stroke-width:150; stroke-opacity:1; 
stroke-linecap:round; stroke-linejoin:round;">
<path d="M35607 17898
L36001 17898
" />
<path d="M35607 19867
L36394 19867
" />
<path d="M35607 21835
L36001 21835
" />
<path d="M35607 23804
L36394 23804
" />
<path d="M35607 25772
L36001 25772
" />
<path d="M35607 27741
L36394 27741
" />
<path d="M35607 29709
L36001 29709
" />
<path d="M35607 32072
L36001 32072
" />
<path d="M35607 32465
L36001 32465
" />
<path d="M35607 32859
L36001 32859
" />
<path d="M35607 33253
L36001 33253
" />
<path d="M35607 31678
L36394 31678
" />
<path d="M35607 34040
L36001 34040
" />
<path d="M35607 34434
L36001 34434
" />
<path d="M35607 34828
L36001 34828
" />
<path d="M35607 35221
L36001 35221
" />
<path d="M35607 33646
L36394 33646
" />
<path d="M35607 35615
L36394 35615
" />
<path d="M35607 15930
L36394 15930
" />
<path d="M35607 35615
L35607 15930
" />
<path d="M31670 35615
L15922 35615
" />
<path d="M15922 35615
L15922 36402
" />
<path d="M17890 35615
L17890 36009
" />
<path d="M19859 35615
L19859 36402
" />
<path d="M21827 35615
L21827 36009
" />
<path d="M23796 35615
L23796 36402
" />
<path d="M25764 35615
L25764 36009
" />
<path d="M27733 35615
L27733 36402
" />
<path d="M29701 35615
L29701 36009
" />
<path d="M32064 35615
L32064 36009
" />
<path d="M32457 35615
L32457 36009
" />
<path d="M32851 35615
L32851 36009
" />
<path d="M33245 35615
L33245 36009
" />
<path d="M34032 35615
L34032 36009
" />
<path d="M34426 35615
L34426 36009
" />
<path d="M34820 35615
L34820 36009
" />
<path d="M35213 35615
L35213 36009
" />
<path d="M33638 35615
L33638 36402
" />
<path d="M35607 35615
L35607 36402
" />
<path d="M35607 35615
L31670 35615
" />
<path d="M31670 35615
L31670 36402
" />
<path d="M39557 36022
L39951 36022
" />
<path d="M39557 36415
L39951 36415
" />
<path d="M39557 36809
L39951 36809
" />
<path d="M39557 37203
L39951 37203
" />
<path d="M39557 37990
L39951 37990
" />
<path d="M39557 38384
L39951 38384
" />
<path d="M39557 38778
L39951 38778
" />
<path d="M39557 39171
L39951 39171
" />
<path d="M39557 39565
L40344 39565
" />
<path d="M39557 37596
L40344 37596
" />
<path d="M39557 35628
L40344 35628
" />
<path d="M39557 33659
L39951 33659
" />
<path d="M39557 31691
L40344 31691
" />
<path d="M39557 29722
L39951 29722
" />
<path d="M39557 27754
L40344 27754
" />
<path d="M39557 25785
L39951 25785
" />
<path d="M39557 23817
L40344 23817
" />
<path d="M39557 21848
L39951 21848
" />
<path d="M39557 19880
L40344 19880
" />
<path d="M39557 17911
L39951 17911
" />
<path d="M39557 15943
L40344 15943
" />
<path d="M39557 13974
L39951 13974
" />
<path d="M39557 12006
L40344 12006
" />
<path d="M39557 10037
L39951 10037
" />
<path d="M39557 8069
L40344 8069
" />
<path d="M39557 6100
L39951 6100
" />
<path d="M39557 4132
L40344 4132
" />
<path d="M39557 2163
L39951 2163
" />
<path d="M39557 39565
L39557 195
" />
<path d="M39557 195
L40344 195
" />
<path d="M2155 39565
L2155 39959
" />
<path d="M4124 39565
L4124 40352
" />
<path d="M6092 39565
L6092 39959
" />
<path d="M8061 39565
L8061 40352
" />
<path d="M10029 39565
L10029 39959
" />
<path d="M11998 39565
L11998 40352
" />
<path d="M13966 39565
L13966 39959
" />
<path d="M15935 39565
L15935 40352
" />
<path d="M17903 39565
L17903 39959
" />
<path d="M19872 39565
L19872 40352
" />
<path d="M21840 39565
L21840 39959
" />
<path d="M23809 39565
L23809 40352
" />
<path d="M25777 39565
L25777 39959
" />
<path d="M27746 39565
L27746 40352
" />
<path d="M29714 39565
L29714 39959
" />
<path d="M31683 39565
L31683 40352
" />
<path d="M33651 39565
L33651 39959
" />
<path d="M35620 39565
L187 39565
" />
<path d="M187 39565
L187 40352
" />
<path d="M36014 39565
L36014 39959
" />
<path d="M36407 39565
L36407 39959
" />
<path d="M36801 39565
L36801 39959
" />
<path d="M37195 39565
L37195 39959
" />
<path d="M37982 39565
L37982 39959
" />
<path d="M38376 39565
L38376 39959
" />
<path d="M38770 39565
L38770 39959
" />
<path d="M39163 39565
L39163 39959
" />
<path d="M37588 39565
L37588 40352
" />
<path d="M39557 39565
L39557 40352
" />
<path d="M39557 39565
L35620 39565
" />
<path d="M35620 39565
L35620 40352
" />
</g>
<g style="fill:#000000; fill-opacity:0.0; 
stroke:#000000; stroke-width:0; stroke-opacity:1; 
stroke-linecap:round; stroke-linejoin:round;">
</g>
<g style="fill:#000000; fill-opacity:1.0; 
stroke:#000000; stroke-width:0; stroke-opacity:1; 
stroke-linecap:round; stroke-linejoin:round;">
<polyline style="fill-rule:evenodd;"
points="30282,20250
30282,20880
31699,20880
31699,20250
30282,20250
" /> 
<polyline style="fill-rule:evenodd;"
points="28116,20250
28116,20880
29533,20880
29533,20250
28116,20250
" /> 
<polyline style="fill-rule:evenodd;"
points="30282,23100
30282,23730
31699,23730
31699,23100
30282,23100
" /> 
<polyline style="fill-rule:evenodd;"
points="28116,23100
28116,23730
29533,23730
29533,23100
28116,23100
" /> 
<polyline style="fill-rule:evenodd;"
points="30282,25950
30282,26580
31699,26580
31699,25950
30282,25950
" /> 
<polyline style="fill-rule:evenodd;"
points="28116,25950
28116,26580
29533,26580
29533,25950
28116,25950
" /> 
<polyline style="fill-rule:evenodd;"
points="30282,28800
30282,29430
31699,29430
31699,28800
30282,28800
" /> 
<polyline style="fill-rule:evenodd;"
points="28116,28800
28116,29430
29533,29430
29533,28800
28116,28800
" /> 
<polyline style="fill-rule:evenodd;"
points="26547,21317
26547,21612
27020,21612
27020,21317
26547,21317
" /> 
<polyline style="fill-rule:evenodd;"
points="27295,21317
27295,21612
27768,21612
27768,21317
27295,21317
" /> 
<polyline style="fill-rule:evenodd;"
points="26547,23967
26547,24262
27020,24262
27020,23967
26547,23967
" /> 
<polyline style="fill-rule:evenodd;"
points="27295,23967
27295,24262
27768,24262
27768,23967
27295,23967
" /> 
<polyline style="fill-rule:evenodd;"
points="26597,25417
26597,25712
27070,25712
27070,25417
26597,25417
" /> 
<polyline style="fill-rule:evenodd;"
points="27345,25417
27345,25712
27818,25712
27818,25417
27345,25417
" /> 
<polyline style="fill-rule:evenodd;"
points="26497,28067
26497,28362
26970,28362
26970,28067
26497,28067
" /> 
<polyline style="fill-rule:evenodd;"
points="27245,28067
27245,28362
27718,28362
27718,28067
27245,28067
" /> 
<polyline style="fill-rule:evenodd;"
points="17932,31650
17932,32280
19349,32280
19349,31650
17932,31650
" /> 
<polyline style="fill-rule:evenodd;"
points="15766,31650
15766,32280
17183,32280
17183,31650
15766,31650
" /> 
<polyline style="fill-rule:evenodd;"
points="29533,32280
29533,31650
28116,31650
28116,32280
29533,32280
" /> 
<polyline style="fill-rule:evenodd;"
points="31699,32280
31699,31650
30282,31650
30282,32280
31699,32280
" /> 
<polyline style="fill-rule:evenodd;"
points="23310,29830
23310,29200
22286,29200
22286,29830
23310,29830
" /> 
<polyline style="fill-rule:evenodd;"
points="24728,29830
24728,29200
23704,29200
23704,29830
24728,29830
" /> 
<polyline style="fill-rule:evenodd;"
points="24310,20530
24310,19900
23286,19900
23286,20530
24310,20530
" /> 
<polyline style="fill-rule:evenodd;"
points="25728,20530
25728,19900
24704,19900
24704,20530
25728,20530
" /> 
<polyline style="fill-rule:evenodd;"
points="17932,20200
17932,20830
19349,20830
19349,20200
17932,20200
" /> 
<polyline style="fill-rule:evenodd;"
points="15766,20200
15766,20830
17183,20830
17183,20200
15766,20200
" /> 
<polyline style="fill-rule:evenodd;"
points="17932,23050
17932,23680
19349,23680
19349,23050
17932,23050
" /> 
<polyline style="fill-rule:evenodd;"
points="15766,23050
15766,23680
17183,23680
17183,23050
15766,23050
" /> 
<polyline style="fill-rule:evenodd;"
points="17932,25950
17932,26580
19349,26580
19349,25950
17932,25950
" /> 
<polyline style="fill-rule:evenodd;"
points="15766,25950
15766,26580
17183,26580
17183,25950
15766,25950
" /> 
<polyline style="fill-rule:evenodd;"
points="17932,28800
17932,29430
19349,29430
19349,28800
17932,28800
" /> 
<polyline style="fill-rule:evenodd;"
points="15766,28800
15766,29430
17183,29430
17183,28800
15766,28800
" /> 
<polyline style="fill-rule:evenodd;"
points="22605,24204
22310,24204
22310,24677
22605,24677
22605,24204
" /> 
<polyline style="fill-rule:evenodd;"
points="22605,24952
22310,24952
22310,25425
22605,25425
22605,24952
" /> 
<polyline style="fill-rule:evenodd;"
points="26205,24204
25910,24204
25910,24677
26205,24677
26205,24204
" /> 
<polyline style="fill-rule:evenodd;"
points="26205,24952
25910,24952
25910,25425
26205,25425
26205,24952
" /> 
<polyline style="fill-rule:evenodd;"
points="26706,30396
27021,30396
27021,30081
26706,30081
26706,30396
" /> 
<polyline style="fill-rule:evenodd;"
points="26706,29648
27021,29648
27021,29333
26706,29333
26706,29648
" /> 
<polyline style="fill-rule:evenodd;"
points="27493,30022
27808,30022
27808,29707
27493,29707
27493,30022
" /> 
<polyline style="fill-rule:evenodd;"
points="26756,27746
27071,27746
27071,27431
26756,27431
26756,27746
" /> 
<polyline style="fill-rule:evenodd;"
points="26756,26998
27071,26998
27071,26683
26756,26683
26756,26998
" /> 
<polyline style="fill-rule:evenodd;"
points="27543,27372
27858,27372
27858,27057
27543,27057
27543,27372
" /> 
<polyline style="fill-rule:evenodd;"
points="26756,22996
27071,22996
27071,22681
26756,22681
26756,22996
" /> 
<polyline style="fill-rule:evenodd;"
points="26756,22248
27071,22248
27071,21933
26756,21933
26756,22248
" /> 
<polyline style="fill-rule:evenodd;"
points="27543,22622
27858,22622
27858,22307
27543,22307
27543,22622
" /> 
<polyline style="fill-rule:evenodd;"
points="26756,20346
27071,20346
27071,20031
26756,20031
26756,20346
" /> 
<polyline style="fill-rule:evenodd;"
points="26756,19598
27071,19598
27071,19283
26756,19283
26756,19598
" /> 
<polyline style="fill-rule:evenodd;"
points="27543,19972
27858,19972
27858,19657
27543,19657
27543,19972
" /> 
<circle cx="32558" cy="20565" r="590.5" /> 
</g>
<g style="fill:#000000; fill-opacity:1.0; 
stroke:#000000; stroke-width:39.3701; stroke-opacity:1; 
stroke-linecap:round; stroke-linejoin:round;">
</g>
<g style="fill:#000000; fill-opacity:1.0; 
stroke:#000000; stroke-width:0; stroke-opacity:1; 
stroke-linecap:round; stroke-linejoin:round;">
<circle cx="32558" cy="23415" r="590.5" /> 
</g>
<g style="fill:#000000; fill-opacity:1.0; 
stroke:#000000; stroke-width:39.3701; stroke-opacity:1; 
stroke-linecap:round; stroke-linejoin:round;">
</g>
<g style="fill:#000000; fill-opacity:1.0; 
stroke:#000000; stroke-width:0; stroke-opacity:1; 
stroke-linecap:round; stroke-linejoin:round;">
<circle cx="32558" cy="26265" r="590.5" /> 
</g>
<g style="fill:#000000; fill-opacity:1.0; 
stroke:#000000; stroke-width:39.3701; stroke-opacity:1; 
stroke-linecap:round; stroke-linejoin:round;">
</g>
<g style="fill:#000000; fill-opacity:1.0; 
stroke:#000000; stroke-width:0; stroke-opacity:1; 
stroke-linecap:round; stroke-linejoin:round;">
<circle cx="32558" cy="29115" r="590.5" /> 
</g>
<g style="fill:#000000; fill-opacity:1.0; 
stroke:#000000; stroke-width:39.3701; stroke-opacity:1; 
stroke-linecap:round; stroke-linejoin:round;">
</g>
<g style="fill:#000000; fill-opacity:1.0; 
stroke:#000000; stroke-width:0; stroke-opacity:1; 
stroke-linecap:round; stroke-linejoin:round;">
<circle cx="14908" cy="31965" r="590.5" /> 
</g>
<g style="fill:#000000; fill-opacity:1.0; 
stroke:#000000; stroke-width:39.3701; stroke-opacity:1; 
stroke-linecap:round; stroke-linejoin:round;">
</g>
<g style="fill:#000000; fill-opacity:1.0; 
stroke:#000000; stroke-width:0; stroke-opacity:1; 
stroke-linecap:round; stroke-linejoin:round;">
<circle cx="32558" cy="31965" r="590.5" /> 
</g>
<g style="fill:#000000; fill-opacity:1.0; 
stroke:#000000; stroke-width:39.3701; stroke-opacity:1; 
stroke-linecap:round; stroke-linejoin:round;">
</g>
<g style="fill:#000000; fill-opacity:1.0; 
stroke:#000000; stroke-width:0; stroke-opacity:1; 
stroke-linecap:round; stroke-linejoin:round;">
<polyline style="fill-rule:evenodd;"
points="22497,27315
21817,27315
21817,28115
22497,28115
22497,27315
" /> 
</g>
<g style="fill:#000000; fill-opacity:1.0; 
stroke:#000000; stroke-width:680; stroke-opacity:1; 
stroke-linecap:round; stroke-linejoin:round;">
</g>
<g style="fill:#000000; fill-opacity:0.0; 
stroke:#000000; stroke-width:680; stroke-opacity:1; 
stroke-linecap:round; stroke-linejoin:round;">
<path d="M23157 27655
L23157 27775
" />
<path d="M24157 27655
L24157 27775
" />
</g>
<g style="fill:#000000; fill-opacity:1.0; 
stroke:#000000; stroke-width:0; stroke-opacity:1; 
stroke-linecap:round; stroke-linejoin:round;">
<circle cx="14908" cy="20515" r="590.5" /> 
</g>
<g style="fill:#000000; fill-opacity:1.0; 
stroke:#000000; stroke-width:39.3701; stroke-opacity:1; 
stroke-linecap:round; stroke-linejoin:round;">
</g>
<g style="fill:#000000; fill-opacity:1.0; 
stroke:#000000; stroke-width:0; stroke-opacity:1; 
stroke-linecap:round; stroke-linejoin:round;">
<circle cx="14908" cy="23365" r="590.5" /> 
</g>
<g style="fill:#000000; fill-opacity:1.0; 
stroke:#000000; stroke-width:39.3701; stroke-opacity:1; 
stroke-linecap:round; stroke-linejoin:round;">
</g>
<g style="fill:#000000; fill-opacity:1.0; 
stroke:#000000; stroke-width:0; stroke-opacity:1; 
stroke-linecap:round; stroke-linejoin:round;">
<circle cx="14908" cy="26265" r="590.5" /> 
</g>
<g style="fill:#000000; fill-opacity:1.0; 
stroke:#000000; stroke-width:39.3701; stroke-opacity:1; 
stroke-linecap:round; stroke-linejoin:round;">
</g>
<g style="fill:#000000; fill-opacity:1.0; 
stroke:#000000; stroke-width:0; stroke-opacity:1; 
stroke-linecap:round; stroke-linejoin:round;">
<circle cx="14908" cy="29115" r="590.5" /> 
</g>
<g style="fill:#000000; fill-opacity:1.0; 
stroke:#000000; stroke-width:39.3701; stroke-opacity:1; 
stroke-linecap:round; stroke-linejoin:round;">
</g>
<g style="fill:#000000; fill-opacity:1.0; 
stroke:#000000; stroke-width:0; stroke-opacity:1; 
stroke-linecap:round; stroke-linejoin:round;">
<circle cx="20208" cy="29115" r="590.5" /> 
</g>
<g style="fill:#000000; fill-opacity:1.0; 
stroke:#000000; stroke-width:39.3701; stroke-opacity:1; 
stroke-linecap:round; stroke-linejoin:round;">
</g>
<g style="fill:#000000; fill-opacity:1.0; 
stroke:#000000; stroke-width:0; stroke-opacity:1; 
stroke-linecap:round; stroke-linejoin:round;">
<polyline style="fill-rule:evenodd;"
points="27827,20992
27827,20637
27354,20637
27354,20992
27827,20992
" /> 
<polyline style="fill-rule:evenodd;"
points="26961,20992
26961,20637
26488,20637
26488,20992
26961,20992
" /> 
<polyline style="fill-rule:evenodd;"
points="27827,23642
27827,23287
27354,23287
27354,23642
27827,23642
" /> 
<polyline style="fill-rule:evenodd;"
points="26961,23642
26961,23287
26488,23287
26488,23642
26961,23642
" /> 
<polyline style="fill-rule:evenodd;"
points="27827,26392
27827,26037
27354,26037
27354,26392
27827,26392
" /> 
<polyline style="fill-rule:evenodd;"
points="26961,26392
26961,26037
26488,26037
26488,26392
26961,26392
" /> 
<polyline style="fill-rule:evenodd;"
points="27777,29042
27777,28687
27304,28687
27304,29042
27777,29042
" /> 
<polyline style="fill-rule:evenodd;"
points="26911,29042
26911,28687
26438,28687
26438,29042
26911,29042
" /> 
<polyline style="fill-rule:evenodd;"
points="19638,30737
19638,31092
20111,31092
20111,30737
19638,30737
" /> 
<polyline style="fill-rule:evenodd;"
points="20504,30737
20504,31092
20977,31092
20977,30737
20504,30737
" /> 
<polyline style="fill-rule:evenodd;"
points="27777,31092
27777,30737
27304,30737
27304,31092
27777,31092
" /> 
<polyline style="fill-rule:evenodd;"
points="26911,31092
26911,30737
26438,30737
26438,31092
26911,31092
" /> 
<polyline style="fill-rule:evenodd;"
points="21288,22237
21288,22592
21761,22592
21761,22237
21288,22237
" /> 
<polyline style="fill-rule:evenodd;"
points="22154,22237
22154,22592
22627,22592
22627,22237
22154,22237
" /> 
<polyline style="fill-rule:evenodd;"
points="21288,22887
21288,23242
21761,23242
21761,22887
21288,22887
" /> 
<polyline style="fill-rule:evenodd;"
points="22154,22887
22154,23242
22627,23242
22627,22887
22154,22887
" /> 
<polyline style="fill-rule:evenodd;"
points="21288,23537
21288,23892
21761,23892
21761,23537
21288,23537
" /> 
<polyline style="fill-rule:evenodd;"
points="22154,23537
22154,23892
22627,23892
22627,23537
22154,23537
" /> 
<polyline style="fill-rule:evenodd;"
points="20988,25737
20988,26092
21461,26092
21461,25737
20988,25737
" /> 
<polyline style="fill-rule:evenodd;"
points="21854,25737
21854,26092
22327,26092
22327,25737
21854,25737
" /> 
<polyline style="fill-rule:evenodd;"
points="20988,26437
20988,26792
21461,26792
21461,26437
20988,26437
" /> 
<polyline style="fill-rule:evenodd;"
points="21854,26437
21854,26792
22327,26792
22327,26437
21854,26437
" /> 
<polyline style="fill-rule:evenodd;"
points="21977,25392
21977,25037
21504,25037
21504,25392
21977,25392
" /> 
<polyline style="fill-rule:evenodd;"
points="21111,25392
21111,25037
20638,25037
20638,25392
21111,25392
" /> 
<polyline style="fill-rule:evenodd;"
points="19688,23537
19688,23892
20161,23892
20161,23537
19688,23537
" /> 
<polyline style="fill-rule:evenodd;"
points="20554,23537
20554,23892
21027,23892
21027,23537
20554,23537
" /> 
<polyline style="fill-rule:evenodd;"
points="19688,22887
19688,23242
20161,23242
20161,22887
19688,22887
" /> 
<polyline style="fill-rule:evenodd;"
points="20554,22887
20554,23242
21027,23242
21027,22887
20554,22887
" /> 
<polyline style="fill-rule:evenodd;"
points="19688,22037
19688,22392
20161,22392
20161,22037
19688,22037
" /> 
<polyline style="fill-rule:evenodd;"
points="20554,22037
20554,22392
21027,22392
21027,22037
20554,22037
" /> 
<polyline style="fill-rule:evenodd;"
points="25596,23230
25596,23072
25163,23072
25163,23230
25596,23230
" /> 
<polyline style="fill-rule:evenodd;"
points="25596,23486
25596,23328
25163,23328
25163,23486
25596,23486
" /> 
<polyline style="fill-rule:evenodd;"
points="25596,23742
25596,23584
25163,23584
25163,23742
25596,23742
" /> 
<polyline style="fill-rule:evenodd;"
points="25596,23998
25596,23840
25163,23840
25163,23998
25596,23998
" /> 
<polyline style="fill-rule:evenodd;"
points="25596,24253
25596,24096
25163,24096
25163,24253
25596,24253
" /> 
<polyline style="fill-rule:evenodd;"
points="25596,24509
25596,24352
25163,24352
25163,24509
25596,24509
" /> 
<polyline style="fill-rule:evenodd;"
points="25596,24765
25596,24608
25163,24608
25163,24765
25596,24765
" /> 
<polyline style="fill-rule:evenodd;"
points="25596,25021
25596,24864
25163,24864
25163,25021
25596,25021
" /> 
<polyline style="fill-rule:evenodd;"
points="25596,25277
25596,25120
25163,25120
25163,25277
25596,25277
" /> 
<polyline style="fill-rule:evenodd;"
points="25596,25533
25596,25376
25163,25376
25163,25533
25596,25533
" /> 
<polyline style="fill-rule:evenodd;"
points="25596,25789
25596,25631
25163,25631
25163,25789
25596,25789
" /> 
<polyline style="fill-rule:evenodd;"
points="25596,26045
25596,25887
25163,25887
25163,26045
25596,26045
" /> 
<polyline style="fill-rule:evenodd;"
points="25596,26301
25596,26143
25163,26143
25163,26301
25596,26301
" /> 
<polyline style="fill-rule:evenodd;"
points="25596,26557
25596,26399
25163,26399
25163,26557
25596,26557
" /> 
<polyline style="fill-rule:evenodd;"
points="23352,26557
23352,26399
22919,26399
22919,26557
23352,26557
" /> 
<polyline style="fill-rule:evenodd;"
points="23352,26301
23352,26143
22919,26143
22919,26301
23352,26301
" /> 
<polyline style="fill-rule:evenodd;"
points="23352,26045
23352,25887
22919,25887
22919,26045
23352,26045
" /> 
<polyline style="fill-rule:evenodd;"
points="23352,25789
23352,25631
22919,25631
22919,25789
23352,25789
" /> 
<polyline style="fill-rule:evenodd;"
points="23352,25533
23352,25376
22919,25376
22919,25533
23352,25533
" /> 
<polyline style="fill-rule:evenodd;"
points="23352,25277
23352,25120
22919,25120
22919,25277
23352,25277
" /> 
<polyline style="fill-rule:evenodd;"
points="23352,25021
23352,24864
22919,24864
22919,25021
23352,25021
" /> 
<polyline style="fill-rule:evenodd;"
points="23352,24765
23352,24608
22919,24608
22919,24765
23352,24765
" /> 
<polyline style="fill-rule:evenodd;"
points="23352,24509
23352,24352
22919,24352
22919,24509
23352,24509
" /> 
<polyline style="fill-rule:evenodd;"
points="23352,24253
23352,24096
22919,24096
22919,24253
23352,24253
" /> 
<polyline style="fill-rule:evenodd;"
points="23352,23998
23352,23840
22919,23840
22919,23998
23352,23998
" /> 
<polyline style="fill-rule:evenodd;"
points="23352,23742
23352,23584
22919,23584
22919,23742
23352,23742
" /> 
<polyline style="fill-rule:evenodd;"
points="23352,23486
23352,23328
22919,23328
22919,23486
23352,23486
" /> 
<polyline style="fill-rule:evenodd;"
points="23352,23230
23352,23072
22919,23072
22919,23230
23352,23230
" /> 
<polyline style="fill-rule:evenodd;"
points="24407,21615
23607,21615
23607,22415
24407,22415
24407,21615
" /> 
</g>
<g style="fill:#000000; fill-opacity:1.0; 
stroke:#000000; stroke-width:800; stroke-opacity:1; 
stroke-linecap:round; stroke-linejoin:round;">
</g>
<g style="fill:#000000; fill-opacity:0.0; 
stroke:#000000; stroke-width:800; stroke-opacity:1; 
stroke-linecap:round; stroke-linejoin:round;">
<path d="M25007 22015
L25007 22015
" />
</g>
<g style="fill:#000000; fill-opacity:1.0; 
stroke:#000000; stroke-width:0; stroke-opacity:1; 
stroke-linecap:round; stroke-linejoin:round;">
<circle cx="22708" cy="20215" r="236.22" /> 
</g>
<g style="fill:#000000; fill-opacity:1.0; 
stroke:#000000; stroke-width:39.3701; stroke-opacity:1; 
stroke-linecap:round; stroke-linejoin:round;">
</g>
<g style="fill:#000000; fill-opacity:1.0; 
stroke:#000000; stroke-width:0; stroke-opacity:1; 
stroke-linecap:round; stroke-linejoin:round;">
<circle cx="26308" cy="22365" r="236.22" /> 
</g>
<g style="fill:#000000; fill-opacity:1.0; 
stroke:#000000; stroke-width:39.3701; stroke-opacity:1; 
stroke-linecap:round; stroke-linejoin:round;">
</g>
<g style="fill:#000000; fill-opacity:1.0; 
stroke:#000000; stroke-width:0; stroke-opacity:1; 
stroke-linecap:round; stroke-linejoin:round;">
<circle cx="26508" cy="26915" r="236.22" /> 
</g>
<g style="fill:#000000; fill-opacity:1.0; 
stroke:#000000; stroke-width:39.3701; stroke-opacity:1; 
stroke-linecap:round; stroke-linejoin:round;">
</g>
<g style="fill:#000000; fill-opacity:1.0; 
stroke:#000000; stroke-width:0; stroke-opacity:1; 
stroke-linecap:round; stroke-linejoin:round;">
<circle cx="26308" cy="29565" r="236.22" /> 
</g>
<g style="fill:#000000; fill-opacity:1.0; 
stroke:#000000; stroke-width:39.3701; stroke-opacity:1; 
stroke-linecap:round; stroke-linejoin:round;">
</g>
<g style="fill:#000000; fill-opacity:1.0; 
stroke:#000000; stroke-width:0; stroke-opacity:1; 
stroke-linecap:round; stroke-linejoin:round;">
<circle cx="21658" cy="29465" r="236.22" /> 
</g>
<g style="fill:#000000; fill-opacity:1.0; 
stroke:#000000; stroke-width:39.3701; stroke-opacity:1; 
stroke-linecap:round; stroke-linejoin:round;">
</g>
<g style="fill:#000000; fill-opacity:1.0; 
stroke:#000000; stroke-width:0; stroke-opacity:1; 
stroke-linecap:round; stroke-linejoin:round;">
<circle cx="27158" cy="24815" r="236.22" /> 
</g>
<g style="fill:#000000; fill-opacity:1.0; 
stroke:#000000; stroke-width:39.3701; stroke-opacity:1; 
stroke-linecap:round; stroke-linejoin:round;">
</g>
<g style="fill:#000000; fill-opacity:1.0; 
stroke:#000000; stroke-width:0; stroke-opacity:1; 
stroke-linecap:round; stroke-linejoin:round;">
<circle cx="27008" cy="31615" r="236.22" /> 
</g>
<g style="fill:#000000; fill-opacity:1.0; 
stroke:#000000; stroke-width:39.3701; stroke-opacity:1; 
stroke-linecap:round; stroke-linejoin:round;">
</g>
<g style="fill:#000000; fill-opacity:1.0; 
stroke:#000000; stroke-width:0; stroke-opacity:1; 
stroke-linecap:round; stroke-linejoin:round;">
<circle cx="24208" cy="30915" r="236.22" /> 
</g>
<g style="fill:#000000; fill-opacity:1.0; 
stroke:#000000; stroke-width:39.3701; stroke-opacity:1; 
stroke-linecap:round; stroke-linejoin:round;">
</g>
<g style="fill:#000000; fill-opacity:1.0; 
stroke:#000000; stroke-width:0; stroke-opacity:1; 
stroke-linecap:round; stroke-linejoin:round;">
<circle cx="19858" cy="21515" r="236.22" /> 
</g>
<g style="fill:#000000; fill-opacity:1.0; 
stroke:#000000; stroke-width:39.3701; stroke-opacity:1; 
stroke-linecap:round; stroke-linejoin:round;">
</g>
<g style="fill:#000000; fill-opacity:1.0; 
stroke:#000000; stroke-width:0; stroke-opacity:1; 
stroke-linecap:round; stroke-linejoin:round;">
<circle cx="21308" cy="24415" r="236.22" /> 
</g>
<g style="fill:#000000; fill-opacity:1.0; 
stroke:#000000; stroke-width:39.3701; stroke-opacity:1; 
stroke-linecap:round; stroke-linejoin:round;">
</g>
<g style="fill:#000000; fill-opacity:1.0; 
stroke:#000000; stroke-width:0; stroke-opacity:1; 
stroke-linecap:round; stroke-linejoin:round;">
<circle cx="19908" cy="24465" r="236.22" /> 
</g>
<g style="fill:#000000; fill-opacity:1.0; 
stroke:#000000; stroke-width:39.3701; stroke-opacity:1; 
stroke-linecap:round; stroke-linejoin:round;">
</g>
<g style="fill:#000000; fill-opacity:1.0; 
stroke:#000000; stroke-width:100; stroke-opacity:1; 
stroke-linecap:round; stroke-linejoin:round;">
</g>
<g style="fill:#000000; fill-opacity:0.0; 
stroke:#000000; stroke-width:100; stroke-opacity:1; 
stroke-linecap:round; stroke-linejoin:round;">
<path d="M23798 20215
L22707 20215
" />
<path d="M26913 22090
L26582 22090
" />
<path d="M26582 22090
L26307 22365
" />
<path d="M26913 26840
L26839 26915
" />
<path d="M26839 26915
L26507 26915
" />
<path d="M26863 29490
L26789 29565
" />
<path d="M26789 29565
L26307 29565
" />
<path d="M22748 29465
L21657 29465
" />
<path d="M22798 29515
L22748 29465
" />
<path d="M26057 24440
L26133 24440
" />
<path d="M24007 22015
L24007 24315
" />
<path d="M24007 24315
L23635 24687
" />
<path d="M23798 20215
L23798 21806
" />
<path d="M23798 21806
L24007 22015
" />
<path d="M26913 19440
L24032 19440
" />
<path d="M23798 19674
L23798 20215
" />
<path d="M24032 19440
L23798 19674
" />
<path d="M23135 24687
L22704 24687
" />
<path d="M22704 24687
L22457 24440
" />
<path d="M25380 24687
L25811 24687
" />
<path d="M25811 24687
L26057 24440
" />
<path d="M25380 24687
L23635 24687
" />
<path d="M23635 24687
L23135 24687
" />
<path d="M26863 30239
L27257 29845
" />
<path d="M27257 29315
L26807 28865
" />
<path d="M27257 29845
L27257 29315
" />
<path d="M26807 28865
L26674 28865
" />
<path d="M26913 27589
L26983 27589
" />
<path d="M26983 27589
L27307 27265
" />
<path d="M27307 26615
L26907 26215
" />
<path d="M27307 27265
L27307 26615
" />
<path d="M26907 26215
L26724 26215
" />
<path d="M26724 26215
L26557 26215
" />
<path d="M26724 23465
L26913 23275
" />
<path d="M26913 23275
L26913 22839
" />
<path d="M26057 25189
L26432 24815
" />
<path d="M26432 24815
L27157 24815
" />
<path d="M26057 25189
L26133 25189
" />
<path d="M24216 29515
L24216 30906
" />
<path d="M26674 31231
L27007 31565
" />
<path d="M27007 31565
L27007 31615
" />
<path d="M26674 31231
L26674 30915
" />
<path d="M24216 30906
L24207 30915
" />
<path d="M26674 28865
L26557 28865
" />
<path d="M25216 20215
L25007 20424
" />
<path d="M25007 20424
L25007 22015
" />
<path d="M26913 20189
L25242 20189
" />
<path d="M25242 20189
L25216 20215
" />
<path d="M26863 30239
L26674 30428
" />
<path d="M26674 30428
L26674 30915
" />
<path d="M26674 28865
L26674 28948
" />
<path d="M26913 27589
L26933 27589
" />
<path d="M26907 26215
L26724 26215
" />
<path d="M26913 20189
L26724 20378
" />
<path d="M26724 20378
L26724 20815
" />
<path d="M19924 21581
L19857 21515
" />
<path d="M19924 21581
L19924 22215
" />
<path d="M21741 24848
L21307 24415
" />
<path d="M21741 25215
L21741 24848
" />
<path d="M19924 24448
L19907 24465
" />
<path d="M19924 24448
L19924 23715
" />
<path d="M19924 23065
L19924 23715
" />
<path d="M22457 25189
L21767 25189
" />
<path d="M21767 25189
L21741 25215
" />
<path d="M23135 24942
L22704 24942
" />
<path d="M22704 24942
L22457 25189
" />
<path d="M25380 24942
L25811 24942
" />
<path d="M25811 24942
L26057 25189
" />
<path d="M25380 24942
L23135 24942
" />
<path d="M27591 20815
L27532 20874
" />
<path d="M27532 20874
L27532 21465
" />
<path d="M27700 19815
L27591 19924
" />
<path d="M27591 19924
L27591 20815
" />
<path d="M28824 20565
L28574 20815
" />
<path d="M28574 20815
L27591 20815
" />
<path d="M32557 20565
L30990 20565
" />
<path d="M30990 20565
L28824 20565
" />
<path d="M27700 22465
L27700 23355
" />
<path d="M27700 23355
L27591 23465
" />
<path d="M27532 24115
L27591 24055
" />
<path d="M27591 24055
L27591 23465
" />
<path d="M28824 23415
L28774 23465
" />
<path d="M28774 23465
L27591 23465
" />
<path d="M27591 23465
L27700 23355
" />
<path d="M27591 23465
L27532 23524
" />
<path d="M28824 23415
L28574 23665
" />
<path d="M32557 23415
L30990 23415
" />
<path d="M30990 23415
L28824 23415
" />
<path d="M27700 27215
L27700 26324
" />
<path d="M27700 26324
L27591 26215
" />
<path d="M27582 25565
L27582 26205
" />
<path d="M27582 26205
L27591 26215
" />
<path d="M28824 26265
L27641 26265
" />
<path d="M27641 26265
L27591 26215
" />
<path d="M27591 26215
L27582 26205
" />
<path d="M27700 26324
L27591 26215
" />
<path d="M28824 26265
L28574 26015
" />
<path d="M30990 26265
L28824 26265
" />
<path d="M32557 26265
L30990 26265
" />
<path d="M27482 28215
L27541 28274
" />
<path d="M27541 28274
L27541 28865
" />
<path d="M27650 29865
L27541 29755
" />
<path d="M27541 29755
L27541 28865
" />
<path d="M28824 29115
L28574 28865
" />
<path d="M28574 28865
L27541 28865
" />
<path d="M30990 29115
L28824 29115
" />
<path d="M32557 29115
L30990 29115
" />
<path d="M26783 21465
L25957 21465
" />
<path d="M25721 23151
L25380 23151
" />
<path d="M25857 23015
L25721 23151
" />
<path d="M25857 21565
L25857 23015
" />
<path d="M25957 21465
L25857 21565
" />
<path d="M26783 24115
L26607 24115
" />
<path d="M26607 24115
L25900 23407
" />
<path d="M25900 23407
L25380 23407
" />
<path d="M26783 24115
L26707 24115
" />
<path d="M26833 25565
L26683 25715
" />
<path d="M26683 25715
L25384 25715
" />
<path d="M25384 25715
L25380 25710
" />
<path d="M26733 28215
L26407 28215
" />
<path d="M26057 27865
L26057 26165
" />
<path d="M26407 28215
L26057 27865
" />
<path d="M25857 25965
L25381 25965
" />
<path d="M26057 26165
L25857 25965
" />
<path d="M25381 25965
L25380 25966
" />
<path d="M18640 31965
L23907 31965
" />
<path d="M23907 31965
L25380 30492
" />
<path d="M25380 26478
L25380 30492
" />
<path d="M16474 31965
L14907 31965
" />
<path d="M19874 30915
L17524 30915
" />
<path d="M17524 30915
L16474 31965
" />
<path d="M28824 31965
L28157 31965
" />
<path d="M28157 31965
L27957 32165
" />
<path d="M26807 32165
L25857 31215
" />
<path d="M27957 32165
L26807 32165
" />
<path d="M25857 26415
L25665 26222
" />
<path d="M25380 26222
L25665 26222
" />
<path d="M25857 31215
L25857 26415
" />
<path d="M28824 31965
L28357 31965
" />
<path d="M30990 31965
L29940 30915
" />
<path d="M29940 30915
L27541 30915
" />
<path d="M32557 31965
L30990 31965
" />
<path d="M16474 20515
L14907 20515
" />
<path d="M18640 20515
L16474 20515
" />
<path d="M20791 22215
L20791 21798
" />
<path d="M19507 20515
L18640 20515
" />
<path d="M20791 21798
L19507 20515
" />
<path d="M21524 22415
L21324 22215
" />
<path d="M21324 22215
L20791 22215
" />
<path d="M16474 23365
L14907 23365
" />
<path d="M18640 23365
L16474 23365
" />
<path d="M20791 23065
L20791 22848
" />
<path d="M19390 22615
L18640 23365
" />
<path d="M20557 22615
L19390 22615
" />
<path d="M20791 22848
L20557 22615
" />
<path d="M21524 23065
L20791 23065
" />
<path d="M20791 23715
L20791 24181
" />
<path d="M20791 24181
L18707 26265
" />
<path d="M18707 26265
L18640 26265
" />
<path d="M18640 26265
L16474 26265
" />
<path d="M16474 26265
L14907 26265
" />
<path d="M21524 23715
L20791 23715
" />
<path d="M21224 25915
L20607 25915
" />
<path d="M18640 27882
L18640 29115
" />
<path d="M20607 25915
L18640 27882
" />
<path d="M20874 25215
L20874 25565
" />
<path d="M20874 25565
L21224 25915
" />
<path d="M16474 29115
L14907 29115
" />
<path d="M18640 29115
L16474 29115
" />
<path d="M23135 26478
L23135 26737
" />
<path d="M23135 26737
L22157 27715
" />
<path d="M23135 26222
L23565 26222
" />
<path d="M23807 27065
L23157 27715
" />
<path d="M23807 26465
L23807 27065
" />
<path d="M23565 26222
L23807 26465
" />
<path d="M23135 26222
L23143 26215
" />
<path d="M23135 25966
L23659 25966
" />
<path d="M24157 26465
L24157 27715
" />
<path d="M23659 25966
L24157 26465
" />
<path d="M21224 26615
L20207 27631
" />
<path d="M20207 27631
L20207 29115
" />
<path d="M23135 23151
L23135 22742
" />
<path d="M22807 22415
L22391 22415
" />
<path d="M23135 22742
L22807 22415
" />
<path d="M23135 23407
L22733 23407
" />
<path d="M22733 23407
L22391 23065
" />
<path d="M22391 23715
L22442 23663
" />
<path d="M22442 23663
L23135 23663
" />
<path d="M23135 25454
L22868 25454
" />
<path d="M22407 25915
L22091 25915
" />
<path d="M22868 25454
L22407 25915
" />
<path d="M23135 25710
L22912 25710
" />
<path d="M22507 26615
L22091 26615
" />
<path d="M22657 26465
L22507 26615
" />
<path d="M22657 25965
L22657 26465
" />
<path d="M22912 25710
L22657 25965
" />
</g>
<g style="fill:#000000; fill-opacity:1.0; 
stroke:#000000; stroke-width:39.3701; stroke-opacity:1; 
stroke-linecap:round; stroke-linejoin:round;">
<polyline style="fill-rule:evenodd;"
points="13957,33615
33508,33615
33508,32101
33248,32101
33143,32355
32949,32549
32695,32655
32421,32655
32167,32550
31973,32356
31872,32114
31801,32114
31801,32280
31794,32316
31772,32350
31739,32373
31699,32381
30282,32381
30245,32374
30211,32352
30188,32319
30180,32280
30180,31650
29635,31650
29635,32280
29628,32316
29606,32350
29573,32373
29533,32381
28116,32381
28079,32374
28045,32352
28022,32319
28019,32300
28015,32303
27957,32314
26807,32314
26750,32303
26702,32270
25752,31320
25719,31272
25708,31215
25708,26477
25698,26466
25698,26557
25691,26594
25669,26627
25636,26650
25596,26658
25529,26658
25529,30492
25518,30550
25485,30598
24013,32070
23965,32103
23907,32114
19451,32114
19451,32280
19444,32316
19422,32350
19389,32373
19349,32381
17932,32381
17895,32374
17861,32352
17838,32319
17830,32280
17830,31650
17837,31613
17859,31579
17892,31556
17932,31548
19349,31548
19386,31555
19420,31577
19443,31610
19451,31650
19451,31815
23845,31815
24611,31050
21196,31050
21196,31135
21163,31216
21101,31278
21020,31311
20876,31311
20821,31256
20821,30995
20660,30995
20660,31256
20605,31311
20461,31311
20380,31278
20318,31216
20285,31135
20285,31050
20340,30995
20660,30995
20821,30995
21142,30995
21196,31050
24611,31050
24967,30694
21196,30694
21196,30779
21142,30834
20821,30834
20821,30573
20660,30573
20660,30834
20340,30834
20285,30779
20285,30737
20212,30737
20212,31092
20205,31129
20184,31163
20150,31185
20111,31193
19638,31193
19601,31186
19567,31165
19545,31131
19537,31092
19537,31064
17587,31064
17103,31548
17183,31548
17220,31555
17254,31577
17277,31610
17285,31650
17285,32280
17278,32316
17256,32350
17223,32373
17183,32381
15766,32381
15729,32374
15695,32352
15672,32319
15664,32280
15664,32114
15592,32114
15493,32355
15299,32549
15045,32655
14771,32655
14517,32550
14323,32356
14217,32102
14217,31828
14322,31574
14516,31380
14770,31274
15044,31274
15298,31379
15492,31573
15593,31815
15664,31815
15664,31650
15671,31613
15693,31579
15726,31556
15766,31548
16679,31548
17419,30809
17467,30776
17524,30765
19537,30765
19537,30737
19544,30700
19565,30666
19599,30644
19638,30636
20111,30636
20148,30643
20182,30664
20204,30698
20212,30737
20285,30737
20285,30694
20318,30613
20380,30551
20461,30518
20605,30518
20660,30573
20821,30573
20876,30518
21020,30518
21101,30551
21163,30613
21196,30694
24967,30694
25230,30430
25230,29650
24948,29650
24948,29873
24915,29954
24853,30016
24772,30049
24352,30049
24297,29994
24297,29595
24136,29595
24136,29994
24081,30049
23661,30049
23580,30016
23518,29954
23485,29873
23485,29650
23540,29595
24136,29595
24297,29595
24893,29595
24948,29650
25230,29650
25230,29156
24948,29156
24948,29379
24893,29434
24297,29434
24297,29035
24136,29035
24136,29434
23540,29434
23485,29379
23485,29200
23453,29200
23453,29830
23443,29881
23413,29929
23366,29961
23310,29972
22286,29972
22235,29962
22187,29932
22155,29885
22144,29830
22144,29654
21986,29654
21976,29677
21871,29783
21733,29840
21583,29840
21445,29783
21339,29678
21282,29540
21282,29390
21339,29252
21444,29146
21582,29089
21732,29089
21870,29146
21976,29251
21986,29275
22144,29275
22144,29200
22154,29148
22184,29100
22231,29068
22286,29057
23310,29057
23362,29067
23410,29097
23442,29144
23453,29200
23485,29200
23485,29156
23518,29075
23580,29013
23661,28980
24081,28980
24136,29035
24297,29035
24352,28980
24772,28980
24853,29013
24915,29075
24948,29156
25230,29156
25230,26658
25163,26658
25126,26651
25092,26629
25069,26596
25061,26557
25061,26399
25068,26362
25076,26350
25069,26340
25061,26301
25061,26143
25068,26106
25076,26094
25069,26084
25061,26045
25061,25887
25068,25850
25076,25838
25069,25828
25061,25789
25061,25631
25068,25594
25076,25582
25069,25573
25061,25533
25061,25376
25068,25339
25076,25326
25069,25317
25061,25277
25061,25217
25039,25207
24977,25146
24943,25065
24943,25037
24998,24982
25299,24982
25299,25018
25460,25018
25460,24982
25468,24982
25468,24908
25163,24908
25138,24903
24998,24903
24971,24876
23544,24876
23517,24903
23375,24903
23352,24908
23047,24908
23047,24982
23055,24982
23055,25018
23216,25018
23216,24982
23517,24982
23572,25037
23572,25065
23538,25146
23476,25207
23454,25217
23454,25277
23447,25314
23439,25326
23446,25336
23454,25376
23454,25533
23447,25570
23439,25582
23446,25592
23454,25631
23454,25789
23448,25816
23659,25816
23716,25828
23765,25860
24263,26359
24296,26407
24307,26465
24307,27235
24326,27238
24468,27334
24564,27476
24597,27645
24597,27784
24564,27953
24468,28095
24326,28191
24157,28224
23989,28191
23847,28095
23751,27953
23718,27784
23718,27645
23751,27476
23847,27334
23989,27238
24008,27235
24008,26527
23957,26476
23957,27065
23946,27122
23913,27170
23571,27513
23597,27645
23597,27784
23564,27953
23468,28095
23326,28191
23157,28224
22989,28191
22847,28095
22751,27953
22718,27784
22718,27645
22751,27476
22847,27334
22989,27238
23157,27205
23326,27238
23383,27277
23658,27002
23658,26527
23503,26372
23448,26372
23454,26399
23454,26557
23447,26594
23425,26627
23392,26650
23352,26658
23285,26658
23285,26737
23274,26794
23241,26842
22599,27485
22599,28115
22592,28151
22570,28185
22537,28208
22497,28216
21817,28216
21781,28209
21747,28187
21724,28154
21716,28115
21716,27315
21723,27278
21745,27244
21778,27221
21817,27213
22447,27213
22986,26675
22986,26658
22919,26658
22882,26651
22848,26629
22825,26596
22817,26557
22817,26399
22824,26362
22832,26350
22825,26340
22817,26301
22817,26143
22824,26106
22832,26094
22825,26084
22817,26045
22817,26016
22807,26027
22807,26465
22796,26522
22763,26570
22613,26720
22565,26753
22507,26764
22428,26764
22428,26792
22421,26829
22400,26863
22366,26885
22327,26893
21854,26893
21817,26886
21783,26865
21761,26831
21753,26792
21753,26437
21562,26437
21562,26792
21555,26829
21534,26863
21500,26885
21461,26893
21157,26893
20357,27693
20357,28430
20598,28529
20792,28723
20898,28977
20898,29251
20793,29505
20599,29699
20345,29805
20071,29805
19817,29700
19623,29506
19517,29252
19517,28978
19622,28724
19816,28530
20058,28429
20058,27631
20069,27574
20102,27526
20887,26741
20887,26437
20894,26400
20915,26366
20949,26344
20988,26336
21461,26336
21498,26343
21532,26364
21554,26398
21562,26437
21753,26437
21760,26400
21781,26366
21815,26344
21854,26336
22327,26336
22364,26343
22398,26364
22420,26398
22428,26437
22428,26465
22445,26465
22508,26402
22508,26024
22465,26053
22428,26060
22428,26092
22421,26129
22400,26163
22366,26185
22327,26193
21854,26193
21817,26186
21783,26165
21761,26131
21753,26092
21753,25737
21562,25737
21562,26092
21555,26129
21534,26163
21500,26185
21461,26193
20988,26193
20951,26186
20917,26165
20895,26131
20887,26092
20887,26064
20670,26064
18790,27944
18790,28698
19349,28698
19386,28705
19420,28727
19443,28760
19451,28800
19451,29430
19444,29466
19422,29500
19389,29523
19349,29531
17932,29531
17895,29524
17861,29502
17838,29469
17830,29430
17830,29264
17285,29264
17285,29430
17278,29466
17256,29500
17223,29523
17183,29531
15766,29531
15729,29524
15695,29502
15672,29469
15664,29430
15664,29264
15592,29264
15493,29505
15299,29699
15045,29805
14771,29805
14517,29700
14323,29506
14217,29252
14217,28978
14322,28724
14516,28530
14770,28424
15044,28424
15298,28529
15492,28723
15593,28965
15664,28965
15664,28800
15671,28763
15693,28729
15726,28706
15766,28698
17183,28698
17220,28705
17254,28727
17277,28760
17285,28800
17285,28965
17830,28965
17830,28800
17837,28763
17859,28729
17892,28706
17932,28698
18491,28698
18491,27882
18502,27824
18535,27776
20502,25809
20550,25776
20607,25765
20863,25765
20769,25670
20736,25622
20725,25565
20725,25493
20638,25493
20601,25486
20567,25465
20545,25431
20537,25392
20537,25037
20544,25000
20565,24966
20599,24944
20638,24936
21111,24936
21148,24943
21182,24964
21204,24998
21212,25037
21212,25392
21205,25429
21184,25463
21150,25485
21111,25493
21024,25493
21024,25502
21157,25636
21461,25636
21498,25643
21532,25664
21554,25698
21562,25737
21753,25737
21760,25700
21781,25666
21815,25644
21854,25636
22245,25636
22185,25611
22127,25552
22101,25578
22020,25611
21876,25611
21821,25556
21821,25295
21660,25295
21660,25556
21605,25611
21461,25611
21380,25578
21318,25516
21285,25435
21285,25350
21340,25295
21660,25295
21821,25295
22119,25295
22145,25269
22384,25269
22384,25590
22336,25637
22364,25643
22398,25664
22417,25693
22531,25579
22531,25269
22546,25269
22546,25108
22531,25108
22531,25100
22384,25100
22384,25108
22168,25108
22142,25134
21821,25134
21821,24873
21660,24873
21660,25134
21340,25134
21285,25079
21285,24994
21318,24913
21380,24851
21461,24818
21605,24818
21660,24873
21821,24873
21876,24818
22020,24818
22101,24851
22110,24860
22124,24828
22185,24766
22198,24761
22179,24732
22167,24677
22167,24204
22177,24153
22208,24105
22254,24073
22310,24062
22605,24062
22657,24072
22704,24102
22736,24149
22748,24204
22748,24462
22782,24497
22817,24497
22817,24352
22824,24315
22832,24303
22825,24293
22817,24253
22817,24096
22824,24059
22832,24047
22825,24037
22817,23998
22817,23840
22822,23813
22728,23813
22728,23892
22721,23929
22700,23963
22666,23985
22627,23993
22154,23993
22117,23986
22083,23965
22061,23931
22053,23892
22053,23537
21862,23537
21862,23892
21855,23929
21834,23963
21800,23985
21761,23993
21288,23993
21251,23986
21217,23965
21195,23931
21187,23892
21187,23864
21128,23864
21128,23892
21121,23929
21100,23963
21066,23985
21027,23993
20940,23993
20940,24181
20929,24239
20896,24287
19336,25848
19349,25848
19386,25855
19420,25877
19443,25910
19451,25950
19451,26580
19444,26616
19422,26650
19389,26673
19349,26681
17932,26681
17895,26674
17861,26652
17838,26619
17830,26580
17830,26414
17285,26414
17285,26580
17278,26616
17256,26650
17223,26673
17183,26681
15766,26681
15729,26674
15695,26652
15672,26619
15664,26580
15664,26414
15592,26414
15493,26655
15299,26849
15045,26955
14771,26955
14517,26850
14323,26656
14217,26402
14217,26128
14322,25874
14516,25680
14770,25574
15044,25574
15298,25679
15492,25873
15593,26115
15664,26115
15664,25950
15671,25913
15693,25879
15726,25856
15766,25848
17183,25848
17220,25855
17254,25877
17277,25910
17285,25950
17285,26115
17830,26115
17830,25950
17837,25913
17859,25879
17892,25856
17932,25848
18912,25848
20641,24119
20641,23993
20554,23993
20517,23986
20483,23965
20461,23931
20453,23892
20453,23850
20380,23850
20380,23935
20347,24016
20285,24078
20204,24111
20060,24111
20005,24056
20005,23795
19844,23795
19844,24056
19789,24111
19645,24111
19564,24078
19502,24016
19469,23935
19469,23850
19523,23795
19844,23795
20005,23795
20325,23795
20380,23850
20453,23850
20453,23537
20460,23500
20481,23466
20515,23444
20554,23436
21027,23436
21064,23443
21098,23464
21120,23498
21128,23537
21128,23565
21187,23565
21187,23537
21194,23500
21215,23466
21249,23444
21288,23436
21761,23436
21798,23443
21832,23464
21854,23498
21862,23537
22053,23537
22060,23500
22081,23466
22115,23444
22154,23436
22550,23436
22458,23343
22154,23343
22117,23336
22083,23315
22061,23281
22053,23242
22053,22887
22060,22850
22081,22816
22115,22794
22154,22786
22627,22786
22664,22793
22698,22814
22720,22848
22728,22887
22728,23191
22795,23257
22823,23257
22817,23230
22817,23072
22824,23035
22846,23002
22879,22979
22919,22971
22986,22971
22986,22804
22745,22564
22728,22564
22728,22592
22721,22629
22700,22663
22666,22685
22627,22693
22154,22693
22117,22686
22083,22665
22061,22631
22053,22592
22053,22237
21862,22237
21862,22592
21855,22629
21834,22663
21800,22685
21761,22693
21288,22693
21251,22686
21217,22665
21195,22631
21187,22592
21187,22364
21128,22364
21128,22392
21121,22429
21100,22463
21066,22485
21027,22493
20640,22493
20663,22509
20896,22742
20926,22786
21027,22786
21064,22793
21098,22814
21120,22848
21128,22887
21128,22915
21187,22915
21187,22887
21194,22850
21215,22816
21249,22794
21288,22786
21761,22786
21798,22793
21832,22814
21854,22848
21862,22887
21862,23242
21855,23279
21834,23313
21800,23335
21761,23343
21288,23343
21251,23336
21217,23315
21195,23281
21187,23242
21187,23214
21128,23214
21128,23242
21121,23279
21100,23313
21066,23335
21027,23343
20554,23343
20517,23336
20483,23315
20461,23281
20453,23242
20453,23200
20380,23200
20380,23285
20347,23366
20323,23390
20347,23413
20380,23494
20380,23579
20325,23634
20005,23634
20005,23145
19844,23145
19844,23634
19523,23634
19469,23579
19469,23494
19502,23413
19525,23390
19502,23366
19469,23285
19469,23200
19523,23145
19844,23145
20005,23145
20325,23145
20380,23200
20453,23200
20453,22887
20460,22850
20481,22816
20515,22794
20523,22792
20495,22764
20347,22764
20380,22844
20380,22929
20325,22984
20005,22984
20005,22976
19844,22976
19844,22984
19523,22984
19469,22929
19469,22844
19501,22764
19453,22764
19269,22948
19349,22948
19386,22955
19420,22977
19443,23010
19451,23050
19451,23680
19444,23716
19422,23750
19389,23773
19349,23781
17932,23781
17895,23774
17861,23752
17838,23719
17830,23680
17830,23514
17285,23514
17285,23680
17278,23716
17256,23750
17223,23773
17183,23781
15766,23781
15729,23774
15695,23752
15672,23719
15664,23680
15664,23514
15592,23514
15493,23755
15299,23949
15045,24055
14771,24055
14517,23950
14323,23756
14217,23502
14217,23228
14322,22974
14516,22780
14770,22674
15044,22674
15298,22779
15492,22973
15593,23215
15664,23215
15664,23050
15671,23013
15693,22979
15726,22956
15766,22948
17183,22948
17220,22955
17254,22977
17277,23010
17285,23050
17285,23215
17830,23215
17830,23050
17837,23013
17859,22979
17892,22956
17932,22948
18845,22948
19285,22509
19333,22476
19390,22465
19481,22465
19469,22435
19469,22350
19523,22295
19844,22295
19844,22303
20005,22303
20005,22295
20325,22295
20380,22350
20380,22435
20368,22465
20484,22465
20483,22465
20461,22431
20453,22392
20453,22037
20460,22000
20464,21994
20380,21994
20380,22079
20325,22134
20005,22134
20005,21873
19844,21873
19844,22134
19523,22134
19469,22079
19469,21994
19502,21913
19564,21851
19645,21818
19789,21818
19844,21873
20005,21873
20060,21818
20204,21818
20285,21851
20347,21913
20380,21994
20464,21994
20481,21966
20515,21944
20554,21936
20641,21936
20641,21860
19451,20669
19451,20830
19444,20866
19422,20900
19389,20923
19349,20931
17932,20931
17895,20924
17861,20902
17838,20869
17830,20830
17830,20664
17285,20664
17285,20830
17278,20866
17256,20900
17223,20923
17183,20931
15766,20931
15729,20924
15695,20902
15672,20869
15664,20830
15664,20664
15592,20664
15493,20905
15299,21099
15045,21205
14771,21205
14517,21100
14323,20906
14217,20652
14217,20378
14322,20124
14516,19930
14770,19824
15044,19824
15298,19929
15492,20123
15593,20365
15664,20365
15664,20200
15671,20163
15693,20129
15726,20106
15766,20098
17183,20098
17220,20105
17254,20127
17277,20160
17285,20200
17285,20365
17830,20365
17830,20200
17837,20163
17859,20129
17892,20106
17932,20098
19349,20098
19386,20105
19420,20127
19443,20160
19451,20200
19451,20365
19507,20365
19565,20376
19613,20409
20896,21692
20929,21740
20940,21798
20940,21936
21027,21936
21064,21943
21098,21964
21120,21998
21128,22037
21128,22065
21324,22065
21382,22076
21410,22095
21430,22109
21457,22136
21761,22136
21798,22143
21832,22164
21854,22198
21862,22237
22053,22237
22060,22200
22081,22166
22115,22144
22154,22136
22627,22136
22664,22143
22698,22164
22720,22198
22728,22237
22728,22265
22807,22265
22865,22276
22913,22309
23241,22637
23274,22685
23285,22742
23285,22971
23352,22971
23389,22978
23423,23000
23446,23033
23454,23072
23454,23230
23447,23267
23439,23279
23446,23289
23454,23328
23454,23486
23447,23523
23439,23535
23446,23545
23454,23584
23454,23742
23447,23779
23439,23791
23446,23801
23454,23840
23454,23998
23447,24035
23439,24047
23446,24056
23454,24096
23454,24253
23447,24290
23439,24303
23446,24312
23454,24352
23454,24497
23557,24497
23818,24236
23818,22557
23607,22557
23556,22547
23508,22517
23476,22470
23465,22415
23465,21615
23475,21563
23505,21515
23552,21483
23607,21472
23609,21472
23609,20672
23286,20672
23235,20662
23187,20632
23155,20585
23144,20530
23144,20404
23036,20404
23026,20427
22921,20533
22783,20590
22633,20590
22495,20533
22389,20428
22332,20290
22332,20140
22389,20002
22494,19896
22632,19839
22782,19839
22920,19896
23026,20001
23036,20025
23144,20025
23144,19900
23154,19848
23184,19800
23231,19768
23286,19757
23609,19757
23609,19674
23623,19601
23664,19539
23897,19306
23959,19265
24032,19251
26620,19251
26623,19231
26654,19184
26701,19152
26756,19141
27071,19141
27123,19150
27170,19181
27202,19228
27213,19283
27213,19598
27204,19650
27173,19697
27126,19729
27071,19740
26756,19740
26704,19731
26657,19700
26625,19653
26620,19630
24110,19630
23988,19752
23988,19757
24310,19757
24362,19767
24410,19797
24442,19844
24453,19900
24453,20530
24443,20581
24413,20629
24366,20661
24310,20672
23988,20672
23988,21472
24407,21472
24459,21482
24507,21512
24539,21559
24548,21606
24711,21470
24832,21420
24927,21455
24927,21934
24919,21934
24919,22095
24927,22095
24927,22574
24832,22609
24711,22559
24548,22423
24540,22466
24510,22514
24463,22546
24407,22557
24197,22557
24197,24315
24183,24387
24142,24449
24093,24497
25061,24497
25061,24352
25068,24315
25076,24303
25069,24293
25061,24253
25061,24096
25068,24059
25076,24047
25069,24037
25061,23998
25061,23840
25068,23803
25076,23791
25069,23781
25061,23742
25061,23584
25068,23547
25076,23535
25069,23525
25061,23486
25061,23328
25068,23291
25076,23279
25069,23269
25061,23230
25061,23072
25068,23035
25090,23002
25123,22979
25163,22971
25596,22971
25633,22978
25663,22997
25708,22952
25708,22190
25602,22190
25489,22404
25304,22559
25183,22609
25088,22574
25088,22095
25567,22095
25602,22190
25708,22190
25708,21839
25602,21839
25567,21934
25088,21934
25088,21455
25183,21420
25304,21470
25489,21625
25602,21839
25708,21839
25708,21565
25719,21507
25719,21507
25752,21459
25852,21359
25900,21326
25957,21315
26446,21315
26453,21280
26474,21246
26508,21223
26547,21215
27020,21215
27057,21222
27091,21244
27113,21277
27121,21317
27121,21612
27114,21649
27093,21683
27059,21706
27020,21714
26547,21714
26510,21707
26476,21685
26454,21652
26446,21614
26020,21614
26007,21627
26007,22133
26094,22046
26232,21989
26382,21989
26405,21998
26447,21956
26509,21915
26582,21901
26620,21901
26623,21881
26654,21834
26701,21802
26756,21791
27071,21791
27123,21800
27170,21831
27202,21878
27213,21933
27213,22248
27204,22300
27173,22347
27126,22379
27071,22390
26756,22390
26704,22381
26683,22367
26683,22439
26666,22480
26712,22461
26780,22461
26835,22516
26835,22760
26591,22760
26536,22705
26536,22667
26521,22683
26383,22740
26233,22740
26095,22683
26007,22596
26007,23015
25996,23072
25963,23120
25827,23257
25826,23257
25900,23257
25957,23269
26006,23301
26286,23582
26323,23545
26644,23545
26644,23806
26589,23861
26566,23861
26570,23865
27020,23865
27057,23872
27091,23894
27113,23927
27121,23967
27121,24262
27114,24299
27093,24333
27059,24356
27020,24364
26547,24364
26510,24357
26476,24335
26454,24302
26446,24262
26446,24164
25838,23557
25692,23557
25698,23584
25698,23742
25691,23779
25683,23791
25690,23801
25698,23840
25698,23998
25691,24035
25683,24047
25690,24056
25698,24096
25698,24253
25691,24290
25683,24303
25690,24312
25698,24352
25698,24497
25733,24497
25767,24462
25767,24204
25777,24153
25808,24105
25854,24073
25910,24062
26205,24062
26257,24072
26304,24102
26336,24149
26348,24204
26348,24677
26338,24728
26317,24761
26330,24766
26391,24828
26425,24909
26425,25053
26370,25108
26131,25108
26131,25100
25984,25100
25984,25108
25969,25108
25969,25269
25984,25269
25984,25277
26131,25277
26131,25269
26370,25269
26425,25324
26425,25468
26391,25549
26376,25565
26496,25565
26496,25417
26503,25380
26524,25346
26558,25323
26597,25315
27070,25315
27107,25322
27141,25344
27163,25377
27171,25417
27171,25712
27164,25749
27143,25783
27109,25806
27070,25814
26796,25814
26792,25818
26805,25818
26805,25873
26860,25818
27004,25818
27085,25851
27147,25913
27180,25994
27180,26079
27125,26134
26805,26134
26805,26126
26644,26126
26644,26134
26323,26134
26269,26079
26269,25994
26302,25913
26351,25864
25969,25864
26163,26059
26196,26107
26207,26165
26207,26683
26294,26596
26356,26570
26302,26516
26269,26435
26269,26350
26323,26295
26644,26295
26644,26303
26805,26303
26805,26295
27125,26295
27180,26350
27180,26435
27147,26516
27114,26549
27123,26550
27170,26581
27202,26628
27213,26683
27213,26998
27204,27050
27173,27097
27126,27129
27071,27140
26813,27140
26742,27211
26780,27211
26835,27266
26835,27510
26591,27510
26536,27455
26536,27387
26570,27307
26588,27288
26583,27290
26433,27290
26295,27233
26207,27146
26207,27802
26415,28010
26424,27996
26458,27973
26497,27965
26711,27965
26632,27932
26570,27870
26536,27790
26536,27722
26591,27667
26835,27667
26835,27677
26992,27677
26992,27667
27236,27667
27291,27722
27291,27790
27257,27870
27195,27932
27115,27966
27047,27966
26994,27912
26994,27966
26972,27966
27007,27972
27041,27994
27063,28027
27071,28067
27071,28362
27064,28399
27043,28433
27009,28456
26970,28464
26497,28464
26460,28457
26426,28435
26404,28402
26396,28362
26396,28362
26350,28353
26302,28320
26007,28026
26007,29333
26094,29246
26232,29189
26274,29189
26252,29166
26219,29085
26219,29000
26273,28945
26594,28945
26594,28953
26755,28953
26755,28945
27075,28945
27130,29000
27130,29085
27097,29166
27064,29199
27073,29200
27120,29231
27152,29278
27163,29333
27163,29648
27154,29700
27123,29747
27076,29779
27021,29790
26706,29790
26654,29781
26631,29766
26626,29777
26521,29883
26383,29940
26233,29940
26095,29883
26007,29796
26007,31152
26870,32015
27895,32015
28014,31896
28014,31650
28021,31613
28043,31579
28076,31556
28116,31548
29533,31548
29570,31555
29604,31577
29627,31610
29635,31650
30180,31650
30187,31613
30209,31579
30242,31556
30282,31548
30362,31548
29878,31064
27878,31064
27878,31092
27871,31129
27850,31163
27816,31185
27777,31193
27304,31193
27267,31186
27233,31165
27211,31131
27203,31092
27203,31050
27130,31050
27130,31135
27097,31216
27035,31278
26954,31311
26810,31311
26755,31256
26755,30995
26594,30995
26594,31256
26539,31311
26395,31311
26314,31278
26252,31216
26219,31135
26219,31050
26273,30995
26594,30995
26755,30995
27075,30995
27130,31050
27203,31050
27203,30737
27210,30700
27231,30666
27265,30644
27304,30636
27777,30636
27814,30643
27848,30664
27870,30698
27878,30737
27878,30765
29940,30765
29998,30776
30046,30809
30786,31548
31699,31548
31736,31555
31770,31577
31793,31610
31801,31650
31801,31815
31873,31815
31972,31574
32166,31380
32420,31274
32694,31274
32948,31379
33142,31573
33248,31827
33248,32101
33508,32101
33508,30372
27241,30372
27241,30440
27207,30520
27145,30582
27089,30605
27097,30613
27130,30694
27130,30779
27075,30834
26755,30834
26755,30826
26594,30826
26594,30834
26273,30834
26219,30779
26219,30694
26252,30613
26314,30551
26395,30518
26519,30518
26486,30440
26486,30372
26541,30317
26785,30317
26785,30327
26942,30327
26942,30317
27186,30317
27241,30372
33508,30372
33508,29251
33248,29251
33143,29505
32949,29699
32695,29805
32421,29805
32167,29700
31973,29506
31872,29264
31801,29264
31801,29430
31794,29466
31772,29500
31739,29523
31699,29531
30282,29531
30245,29524
30211,29502
30188,29469
30180,29430
30180,29264
29635,29264
29635,29430
29628,29466
29606,29500
29573,29523
29533,29531
28116,29531
28079,29524
28045,29502
28022,29469
28014,29430
28014,29014
27878,29014
27878,29042
27871,29079
27850,29113
27816,29135
27777,29143
27690,29143
27690,29605
27808,29605
27845,29612
27879,29634
27902,29667
27910,29707
27910,30022
27903,30059
27881,30093
27848,30116
27808,30124
27493,30124
27456,30117
27422,30095
27399,30062
27394,30037
27241,30037
27241,30105
27186,30160
26942,30160
26942,29916
26785,29916
26785,30160
26541,30160
26486,30105
26486,30037
26520,29957
26582,29895
26662,29861
26730,29861
26785,29916
26942,29916
26997,29861
27065,29861
27145,29895
27207,29957
27241,30037
27394,30037
27391,30022
27391,29757
27391,29755
27391,29143
27304,29143
27267,29136
27233,29115
27211,29081
27203,29042
27203,28687
27210,28650
27214,28644
27130,28644
27130,28729
27075,28784
26755,28784
26755,28523
26594,28523
26594,28784
26273,28784
26219,28729
26219,28644
26252,28563
26314,28501
26395,28468
26539,28468
26594,28523
26755,28523
26810,28468
26954,28468
27035,28501
27097,28563
27130,28644
27214,28644
27231,28616
27265,28594
27304,28586
27391,28586
27391,28464
27245,28464
27208,28457
27174,28435
27152,28402
27144,28362
27144,28067
27151,28030
27172,27996
27206,27973
27245,27965
27718,27965
27755,27972
27789,27994
27811,28027
27819,28067
27819,28362
27812,28399
27791,28433
27757,28456
27718,28464
27690,28464
27690,28586
27777,28586
27814,28593
27848,28614
27870,28648
27878,28687
27878,28715
28063,28715
28076,28706
28116,28698
29533,28698
29570,28705
29604,28727
29627,28760
29635,28800
29635,28965
30180,28965
30180,28800
30187,28763
30209,28729
30242,28706
30282,28698
31699,28698
31736,28705
31770,28727
31793,28760
31801,28800
31801,28965
31873,28965
31972,28724
32166,28530
32420,28424
32694,28424
32948,28529
33142,28723
33248,28977
33248,29251
33508,29251
33508,26401
33248,26401
33143,26655
32949,26849
32695,26955
32421,26955
32167,26850
31973,26656
31872,26414
31801,26414
31801,26580
31794,26616
31772,26650
31739,26673
31699,26681
30282,26681
30245,26674
30211,26652
30188,26619
30180,26580
30180,26414
29635,26414
29635,26580
29628,26616
29606,26650
29573,26673
29533,26681
28116,26681
28079,26674
28045,26652
28022,26619
28014,26580
28014,26414
27924,26414
27921,26429
27900,26463
27866,26485
27850,26489
27850,26955
27858,26955
27895,26962
27929,26984
27952,27017
27960,27057
27960,27372
27953,27409
27931,27443
27898,27466
27858,27474
27543,27474
27506,27467
27472,27445
27449,27412
27444,27387
27291,27387
27291,27455
27236,27510
26992,27510
26992,27266
27047,27211
27115,27211
27195,27245
27257,27307
27291,27387
27444,27387
27441,27372
27441,27057
27448,27020
27470,26986
27503,26963
27543,26955
27551,26955
27551,26493
27354,26493
27317,26486
27283,26465
27261,26431
27253,26392
27253,26037
27260,26000
27281,25966
27315,25944
27354,25936
27432,25936
27432,25814
27345,25814
27308,25807
27274,25785
27252,25752
27244,25712
27244,25417
27251,25380
27272,25346
27306,25323
27345,25315
27818,25315
27855,25322
27889,25344
27911,25377
27919,25417
27919,25712
27912,25749
27891,25783
27857,25806
27818,25814
27731,25814
27731,25936
27827,25936
27864,25943
27898,25964
27920,25998
27928,26037
27928,26115
28014,26115
28014,25950
28021,25913
28043,25879
28076,25856
28116,25848
29533,25848
29570,25855
29604,25877
29627,25910
29635,25950
29635,26115
30180,26115
30180,25950
30187,25913
30209,25879
30242,25856
30282,25848
31699,25848
31736,25855
31770,25877
31793,25910
31801,25950
31801,26115
31873,26115
31972,25874
32166,25680
32420,25574
32694,25574
32948,25679
33142,25873
33248,26127
33248,26401
33508,26401
33508,23551
33248,23551
33143,23805
32949,23999
32695,24105
32421,24105
32167,24000
31973,23806
31872,23564
31801,23564
31801,23730
31794,23766
31772,23800
31739,23823
31699,23831
30282,23831
30245,23824
30211,23802
30188,23769
30180,23730
30180,23564
29635,23564
29635,23730
29628,23766
29606,23800
29573,23823
29533,23831
28116,23831
28079,23824
28045,23802
28022,23769
28014,23730
28014,23614
27928,23614
27928,23642
27921,23679
27900,23713
27866,23735
27827,23743
27740,23743
27740,23865
27768,23865
27805,23872
27839,23894
27861,23927
27869,23967
27869,24262
27862,24299
27841,24333
27807,24356
27768,24364
27295,24364
27258,24357
27224,24335
27202,24302
27194,24262
27194,23967
27201,23930
27222,23896
27256,23873
27295,23865
27441,23865
27441,23743
27354,23743
27317,23736
27283,23715
27261,23681
27253,23642
27253,23600
27180,23600
27180,23685
27147,23766
27085,23828
27004,23861
26860,23861
26805,23806
26805,23545
27125,23545
27180,23600
27253,23600
27253,23287
27260,23250
27281,23216
27315,23194
27354,23186
27551,23186
27551,22972
27291,22972
27291,23040
27257,23120
27195,23182
27161,23197
27180,23244
27180,23329
27125,23384
26805,23384
26805,23376
26644,23376
26644,23384
26323,23384
26269,23329
26269,23244
26302,23163
26364,23101
26445,23068
26548,23068
26536,23040
26536,22972
26591,22917
26835,22917
26835,22927
26992,22927
26992,22917
27236,22917
27291,22972
27551,22972
27551,22724
27543,22724
27506,22717
27472,22695
27449,22662
27444,22637
27291,22637
27291,22705
27236,22760
26992,22760
26992,22516
27047,22461
27115,22461
27195,22495
27257,22557
27291,22637
27444,22637
27441,22622
27441,22307
27448,22270
27470,22236
27503,22213
27543,22205
27858,22205
27895,22212
27929,22234
27952,22267
27960,22307
27960,22622
27953,22659
27931,22693
27898,22716
27858,22724
27850,22724
27850,23190
27864,23193
27898,23214
27920,23248
27928,23287
27928,23315
28014,23315
28014,23100
28021,23063
28043,23029
28076,23006
28116,22998
29533,22998
29570,23005
29604,23027
29627,23060
29635,23100
29635,23265
30180,23265
30180,23100
30187,23063
30209,23029
30242,23006
30282,22998
31699,22998
31736,23005
31770,23027
31793,23060
31801,23100
31801,23265
31873,23265
31972,23024
32166,22830
32420,22724
32694,22724
32948,22829
33142,23023
33248,23277
33248,23551
33508,23551
33508,20701
33248,20701
33143,20955
32949,21149
32695,21255
32421,21255
32167,21150
31973,20956
31872,20714
31801,20714
31801,20880
31794,20916
31772,20950
31739,20973
31699,20981
30282,20981
30245,20974
30211,20952
30188,20919
30180,20880
30180,20714
29635,20714
29635,20880
29628,20916
29606,20950
29573,20973
29533,20981
28116,20981
28079,20974
28064,20964
27928,20964
27928,20992
27921,21029
27900,21063
27866,21085
27827,21093
27681,21093
27681,21215
27768,21215
27805,21222
27839,21244
27861,21277
27869,21317
27869,21612
27862,21649
27841,21683
27807,21706
27768,21714
27295,21714
27258,21707
27224,21685
27202,21652
27194,21612
27194,21317
27201,21280
27222,21246
27256,21223
27295,21215
27382,21215
27382,21093
27354,21093
27317,21086
27283,21065
27261,21031
27253,20992
27253,20950
27180,20950
27180,21035
27147,21116
27085,21178
27004,21211
26860,21211
26805,21156
26805,20895
26644,20895
26644,21156
26589,21211
26445,21211
26364,21178
26302,21116
26269,21035
26269,20950
26323,20895
26644,20895
26805,20895
27125,20895
27180,20950
27253,20950
27253,20637
27260,20600
27281,20566
27315,20544
27354,20536
27441,20536
27441,20322
27291,20322
27291,20390
27257,20470
27195,20532
27161,20547
27180,20594
27180,20679
27125,20734
26805,20734
26805,20726
26644,20726
26644,20734
26323,20734
26269,20679
26269,20594
26302,20513
26364,20451
26445,20418
26548,20418
26536,20390
26536,20350
25948,20350
25948,20573
25915,20654
25853,20716
25772,20749
25352,20749
25297,20694
25297,20295
25136,20295
25136,20694
25081,20749
24661,20749
24580,20716
24518,20654
24485,20573
24485,20350
24540,20295
25136,20295
25297,20295
25893,20295
25948,20350
26536,20350
26536,20322
26591,20267
26835,20267
26835,20277
26992,20277
26992,20267
27236,20267
27291,20322
27441,20322
27441,19987
27291,19987
27291,20055
27236,20110
26992,20110
26992,19866
26835,19866
26835,20110
26591,20110
26536,20055
26536,19987
26570,19907
26621,19856
25948,19856
25948,20079
25893,20134
25297,20134
25297,19735
25136,19735
25136,20134
24540,20134
24485,20079
24485,19856
24518,19775
24580,19713
24661,19680
25081,19680
25136,19735
25297,19735
25352,19680
25772,19680
25853,19713
25915,19775
25948,19856
26621,19856
26632,19845
26712,19811
26780,19811
26835,19866
26992,19866
27047,19811
27115,19811
27195,19845
27257,19907
27291,19987
27441,19987
27441,19924
27441,19922
27441,19657
27448,19620
27470,19586
27503,19563
27543,19555
27858,19555
27895,19562
27929,19584
27952,19617
27960,19657
27960,19972
27953,20009
27931,20043
27898,20066
27858,20074
27740,20074
27740,20536
27827,20536
27864,20543
27898,20564
27920,20598
27928,20637
27928,20665
28014,20665
28014,20250
28021,20213
28043,20179
28076,20156
28116,20148
29533,20148
29570,20155
29604,20177
29627,20210
29635,20250
29635,20415
30180,20415
30180,20250
30187,20213
30209,20179
30242,20156
30282,20148
31699,20148
31736,20155
31770,20177
31793,20210
31801,20250
31801,20415
31873,20415
31972,20174
32166,19980
32420,19874
32694,19874
32948,19979
33142,20173
33248,20427
33248,20701
33508,20701
33508,18914
13957,18914
13957,33615
" /> 
</g>
<g style="fill:#FFFFFF; fill-opacity:1.0; 
stroke:#FFFFFF; stroke-width:39.3701; stroke-opacity:1; 
stroke-linecap:round; stroke-linejoin:round;">
</g>
<g style="fill:#FFFFFF; fill-opacity:1.0; 
stroke:#FFFFFF; stroke-width:0; stroke-opacity:1; 
stroke-linecap:round; stroke-linejoin:round;">
<circle cx="22708" cy="20215" r="157.48" /> 
</g>
<g style="fill:#FFFFFF; fill-opacity:1.0; 
stroke:#FFFFFF; stroke-width:39.3701; stroke-opacity:1; 
stroke-linecap:round; stroke-linejoin:round;">
</g>
<g style="fill:#FFFFFF; fill-opacity:1.0; 
stroke:#FFFFFF; stroke-width:0; stroke-opacity:1; 
stroke-linecap:round; stroke-linejoin:round;">
<circle cx="26308" cy="22365" r="157.48" /> 
</g>
<g style="fill:#FFFFFF; fill-opacity:1.0; 
stroke:#FFFFFF; stroke-width:39.3701; stroke-opacity:1; 
stroke-linecap:round; stroke-linejoin:round;">
</g>
<g style="fill:#FFFFFF; fill-opacity:1.0; 
stroke:#FFFFFF; stroke-width:0; stroke-opacity:1; 
stroke-linecap:round; stroke-linejoin:round;">
<circle cx="26508" cy="26915" r="157.48" /> 
</g>
<g style="fill:#FFFFFF; fill-opacity:1.0; 
stroke:#FFFFFF; stroke-width:39.3701; stroke-opacity:1; 
stroke-linecap:round; stroke-linejoin:round;">
</g>
<g style="fill:#FFFFFF; fill-opacity:1.0; 
stroke:#FFFFFF; stroke-width:0; stroke-opacity:1; 
stroke-linecap:round; stroke-linejoin:round;">
<circle cx="26308" cy="29565" r="157.48" /> 
</g>
<g style="fill:#FFFFFF; fill-opacity:1.0; 
stroke:#FFFFFF; stroke-width:39.3701; stroke-opacity:1; 
stroke-linecap:round; stroke-linejoin:round;">
</g>
<g style="fill:#FFFFFF; fill-opacity:1.0; 
stroke:#FFFFFF; stroke-width:0; stroke-opacity:1; 
stroke-linecap:round; stroke-linejoin:round;">
<circle cx="21658" cy="29465" r="157.48" /> 
</g>
<g style="fill:#FFFFFF; fill-opacity:1.0; 
stroke:#FFFFFF; stroke-width:39.3701; stroke-opacity:1; 
stroke-linecap:round; stroke-linejoin:round;">
</g>
<g style="fill:#FFFFFF; fill-opacity:1.0; 
stroke:#FFFFFF; stroke-width:0; stroke-opacity:1; 
stroke-linecap:round; stroke-linejoin:round;">
<circle cx="27158" cy="24815" r="157.48" /> 
</g>
<g style="fill:#FFFFFF; fill-opacity:1.0; 
stroke:#FFFFFF; stroke-width:39.3701; stroke-opacity:1; 
stroke-linecap:round; stroke-linejoin:round;">
</g>
<g style="fill:#FFFFFF; fill-opacity:1.0; 
stroke:#FFFFFF; stroke-width:0; stroke-opacity:1; 
stroke-linecap:round; stroke-linejoin:round;">
<circle cx="27008" cy="31615" r="157.48" /> 
</g>
<g style="fill:#FFFFFF; fill-opacity:1.0; 
stroke:#FFFFFF; stroke-width:39.3701; stroke-opacity:1; 
stroke-linecap:round; stroke-linejoin:round;">
</g>
<g style="fill:#FFFFFF; fill-opacity:1.0; 
stroke:#FFFFFF; stroke-width:0; stroke-opacity:1; 
stroke-linecap:round; stroke-linejoin:round;">
<circle cx="24208" cy="30915" r="157.48" /> 
</g>
<g style="fill:#FFFFFF; fill-opacity:1.0; 
stroke:#FFFFFF; stroke-width:39.3701; stroke-opacity:1; 
stroke-linecap:round; stroke-linejoin:round;">
</g>
<g style="fill:#FFFFFF; fill-opacity:1.0; 
stroke:#FFFFFF; stroke-width:0; stroke-opacity:1; 
stroke-linecap:round; stroke-linejoin:round;">
<circle cx="19858" cy="21515" r="157.48" /> 
</g>
<g style="fill:#FFFFFF; fill-opacity:1.0; 
stroke:#FFFFFF; stroke-width:39.3701; stroke-opacity:1; 
stroke-linecap:round; stroke-linejoin:round;">
</g>
<g style="fill:#FFFFFF; fill-opacity:1.0; 
stroke:#FFFFFF; stroke-width:0; stroke-opacity:1; 
stroke-linecap:round; stroke-linejoin:round;">
<circle cx="21308" cy="24415" r="157.48" /> 
</g>
<g style="fill:#FFFFFF; fill-opacity:1.0; 
stroke:#FFFFFF; stroke-width:39.3701; stroke-opacity:1; 
stroke-linecap:round; stroke-linejoin:round;">
</g>
<g style="fill:#FFFFFF; fill-opacity:1.0; 
stroke:#FFFFFF; stroke-width:0; stroke-opacity:1; 
stroke-linecap:round; stroke-linejoin:round;">
<circle cx="19908" cy="24465" r="157.48" /> 
</g>
<g style="fill:#FFFFFF; fill-opacity:1.0; 
stroke:#FFFFFF; stroke-width:39.3701; stroke-opacity:1; 
stroke-linecap:round; stroke-linejoin:round;">
</g>
<g style="fill:#FFFFFF; fill-opacity:1.0; 
stroke:#FFFFFF; stroke-width:0; stroke-opacity:1; 
stroke-linecap:round; stroke-linejoin:round;">
<circle cx="22158" cy="27715" r="200" /> 
</g>
<g style="fill:#FFFFFF; fill-opacity:1.0; 
stroke:#FFFFFF; stroke-width:39.3701; stroke-opacity:1; 
stroke-linecap:round; stroke-linejoin:round;">
</g>
<g style="fill:#FFFFFF; fill-opacity:1.0; 
stroke:#FFFFFF; stroke-width:0; stroke-opacity:1; 
stroke-linecap:round; stroke-linejoin:round;">
<circle cx="23158" cy="27715" r="200" /> 
</g>
<g style="fill:#FFFFFF; fill-opacity:1.0; 
stroke:#FFFFFF; stroke-width:39.3701; stroke-opacity:1; 
stroke-linecap:round; stroke-linejoin:round;">
</g>
<g style="fill:#FFFFFF; fill-opacity:1.0; 
stroke:#FFFFFF; stroke-width:0; stroke-opacity:1; 
stroke-linecap:round; stroke-linejoin:round;">
<circle cx="24158" cy="27715" r="200" /> 
</g>
<g style="fill:#FFFFFF; fill-opacity:1.0; 
stroke:#FFFFFF; stroke-width:39.3701; stroke-opacity:1; 
stroke-linecap:round; stroke-linejoin:round;">
</g>
<g style="fill:#FFFFFF; fill-opacity:1.0; 
stroke:#FFFFFF; stroke-width:0; stroke-opacity:1; 
stroke-linecap:round; stroke-linejoin:round;">
<circle cx="24008" cy="22015" r="200" /> 
</g>
<g style="fill:#FFFFFF; fill-opacity:1.0; 
stroke:#FFFFFF; stroke-width:39.3701; stroke-opacity:1; 
stroke-linecap:round; stroke-linejoin:round;">
</g>
<g style="fill:#FFFFFF; fill-opacity:1.0; 
stroke:#FFFFFF; stroke-width:0; stroke-opacity:1; 
stroke-linecap:round; stroke-linejoin:round;">
<circle cx="25008" cy="22015" r="200" /> 
</g>
<g style="fill:#FFFFFF; fill-opacity:1.0; 
stroke:#FFFFFF; stroke-width:39.3701; stroke-opacity:1; 
stroke-linecap:round; stroke-linejoin:round;">
</g>
<g style="fill:#000000; fill-opacity:1.0; 
stroke:#000000; stroke-width:39.3701; stroke-opacity:1; 
stroke-linecap:round; stroke-linejoin:round;">
</g>
<g style="fill:#000000; fill-opacity:1.0; 
stroke:#000000; stroke-width:59.0551; stroke-opacity:1; 
stroke-linecap:round; stroke-linejoin:round;">
</g>
<g style="fill:#000000; fill-opacity:0.0; 
stroke:#000000; stroke-width:59.0551; stroke-opacity:1; 
stroke-linecap:round; stroke-linejoin:round;">
<path d="M33557 18865
L31807 18865
" />
<path d="M33557 33665
L33557 18865
" />
<path d="M13907 33665
L33557 33665
" />
<path d="M13907 18865
L13907 33665
" />
<path d="M31807 18865
L13907 18865
" />
</g> 
</svg>
